<?xml version="1.0" encoding="utf-8"?>
<!-- Generator: Adobe Illustrator 16.0.0, SVG Export Plug-In . SVG Version: 6.00 Build 0)  -->
<!DOCTYPE svg PUBLIC "-//W3C//DTD SVG 1.1//EN" "http://www.w3.org/Graphics/SVG/1.1/DTD/svg11.dtd">
<svg version="1.1" id="Layer_1" xmlns="http://www.w3.org/2000/svg" xmlns:xlink="http://www.w3.org/1999/xlink" x="0px" y="0px"
	 width="28px" height="28px" viewBox="0 0 28 28" enable-background="new 0 0 28 28" xml:space="preserve">
<path id="coin-3-icon_1_" fill="#666666" d="M14,3.75C8.335,3.75,3.75,8.334,3.75,14c0,5.665,4.584,10.25,10.25,10.25
	c5.665,0,10.25-4.584,10.25-10.25C24.25,8.335,19.666,3.75,14,3.75z M15.239,19.477v1.36h-1.946v-1.216
	c-0.934-0.08-2.167-0.419-3.076-0.92l0.645-2.242c1.029,0.4,2.531,0.906,3.642,0.663c0.972-0.212,1.216-1.083,0.073-1.576
	c-0.967-0.435-4.288-0.887-4.288-3.665c0-1.15,0.862-2.732,3.006-3.201V7.299h1.946v1.268c0.834,0.058,1.685,0.211,2.667,0.519
	c-0.099,0.431-0.522,2.292-0.522,2.292c-0.679-0.23-1.787-0.634-2.853-0.574c-1.315,0.074-1.409,1.034-0.522,1.479
	c1.819,0.822,4.454,1.521,4.454,3.977C18.465,18.15,16.988,19.23,15.239,19.477z"/>
<path id="coin-3-icon_2_" fill="#9B9B9B" d="M14,0C6.268,0,0,6.268,0,14s6.268,14,14,14s14-6.268,14-14S21.732,0,14,0z M14,26.422
	C7.141,26.422,1.578,20.859,1.578,14S7.141,1.578,14,1.578c6.861,0,12.422,5.562,12.422,12.422S20.861,26.422,14,26.422z"/>
</svg>
