<?xml version="1.0" encoding="utf-8"?>
<!-- Generator: Adobe Illustrator 16.0.0, SVG Export Plug-In . SVG Version: 6.00 Build 0)  -->
<!DOCTYPE svg PUBLIC "-//W3C//DTD SVG 1.1//EN" "http://www.w3.org/Graphics/SVG/1.1/DTD/svg11.dtd">
<svg version="1.1" id="Layer_1" xmlns="http://www.w3.org/2000/svg" xmlns:xlink="http://www.w3.org/1999/xlink" x="0px" y="0px"
	 width="28px" height="28px" viewBox="242 242 28 28" enable-background="new 242 242 28 28" xml:space="preserve">
<path id="tools-5-icon" fill="#666666" d="M266.56,263.996l-11.799-12.237c-0.567-0.588-0.86-1.406-0.797-2.236
	c0.117-1.571-0.404-3.185-1.562-4.386c-1.501-1.557-3.68-2.011-5.578-1.33l3.431,3.558c0.078,1.387-1.989,3.533-3.329,3.452
	l-3.43-3.557c-0.653,1.959-0.227,4.22,1.283,5.785c1.052,1.091,2.431,1.636,3.81,1.636c0.381,0,1.56-0.241,2.575,0.811
	l11.799,12.235c0.993,1.031,2.604,1.031,3.599,0C267.553,266.696,267.553,265.025,266.56,263.996z M264.637,266.787
	c-0.58,0-1.049-0.486-1.049-1.087s0.469-1.088,1.049-1.088c0.578,0,1.048,0.487,1.048,1.088S265.215,266.787,264.637,266.787z"/>
<path id="tools-5-icon_1_" fill="#9B9B9B" d="M257.077,251.613l7.295-7.565l4.431,4.594l-7.295,7.565l-1.077-1.117l5.976-6.197
	c0.178-0.184,0.178-0.482,0-0.666c-0.177-0.184-0.465-0.184-0.642,0l-5.976,6.197l-0.999-1.036l5.983-6.205
	c0.178-0.184,0.178-0.482,0-0.666c-0.177-0.184-0.464-0.184-0.641,0l-5.984,6.206L257.077,251.613z M255.451,262.488l-4.717,4.892
	l-5.55,1.062l1.12-5.657l4.717-4.893l1.072,1.111l-4.244,4.401c-0.177,0.184-0.177,0.481,0,0.666c0.177,0.184,0.464,0.184,0.641,0
	l4.245-4.401l0.998,1.036l-4.251,4.408c-0.177,0.184-0.177,0.481,0,0.665c0.178,0.184,0.464,0.184,0.642,0l4.251-4.408
	L255.451,262.488z"/>
</svg>
